<?xml version="1.0" encoding="UTF-8" standalone="no"?>
<svg
   version="1.0"
   width="508pt"
   height="1200pt"
   viewBox="0 0 508 1200"
   preserveAspectRatio="xMidYMid"
   id="svg8"
   sodipodi:docname="pin.svg"
   inkscape:version="1.2.1 (9c6d41e410, 2022-07-14)"
   xmlns:inkscape="http://www.inkscape.org/namespaces/inkscape"
   xmlns:sodipodi="http://sodipodi.sourceforge.net/DTD/sodipodi-0.dtd"
   xmlns="http://www.w3.org/2000/svg"
   xmlns:svg="http://www.w3.org/2000/svg">
  <defs
     id="defs12" />
  <sodipodi:namedview
     id="namedview10"
     pagecolor="#ffffff"
     bordercolor="#cccccc"
     borderopacity="1"
     inkscape:showpageshadow="0"
     inkscape:pageopacity="1"
     inkscape:pagecheckerboard="0"
     inkscape:deskcolor="#d1d1d1"
     inkscape:document-units="pt"
     showgrid="false"
     inkscape:zoom="0.47695313"
     inkscape:cx="483.276"
     inkscape:cy="856.47829"
     inkscape:window-width="1920"
     inkscape:window-height="1001"
     inkscape:window-x="-9"
     inkscape:window-y="-9"
     inkscape:window-maximized="1"
     inkscape:current-layer="svg8" />
  <metadata
     id="metadata2">
Created by potrace 1.15, written by Peter Selinger 2001-2017
</metadata>
  <g
     transform="matrix(0.1,0,0,-0.1,-48.746929,1262.7027)"
     fill="#000000"
     stroke="none"
     id="g6"
     style="fill:#000000;fill-opacity:1;stroke:none">
    <path
       d="m 2880,12590 c -748,-71 -1401,-462 -1821,-1090 -81,-121 -204,-365 -253,-500 -49,-136 -99,-335 -123,-480 -14,-91 -18,-169 -17,-370 0,-229 3,-270 27,-400 114,-635 449,-1176 962,-1555 130,-96 368,-235 403,-235 24,0 62,187 -418,-2065 -67,-313 -148,-694 -180,-845 -32,-151 -91,-426 -130,-610 -39,-184 -98,-459 -130,-610 -32,-151 -113,-531 -180,-845 C 953,2672 872,2291 840,2140 783,1871 699,1479 579,915 546,761 517,622 514,605 c -4,-28 -4,-29 5,-5 5,14 55,176 111,360 56,184 183,601 282,925 99,325 211,694 250,820 38,127 118,390 178,585 60,195 141,461 180,590 39,129 120,395 180,590 60,195 181,592 269,883 89,290 233,764 322,1055 88,290 210,689 270,887 60,198 114,372 119,388 26,73 33,88 39,78 24,-38 500,-47 726,-12 531,80 1005,320 1378,696 192,193 324,376 448,620 117,232 190,461 236,740 27,167 25,564 -5,735 -90,521 -309,957 -668,1327 -379,390 -875,636 -1439,713 -110,15 -400,21 -515,10 z"
       id="path4"
       style="fill:#000000;fill-opacity:1;stroke:none" />
  </g>
</svg>
